<?xml version="1.0" encoding="UTF-8"?>
<svg xmlns="http://www.w3.org/2000/svg" xmlns:xlink="http://www.w3.org/1999/xlink" width="32pt" height="32pt" viewBox="0 0 32 32" version="1.1">
<g id="surface1">
<path style=" stroke:none;fill-rule:nonzero;fill:rgb(0%,0%,0%);fill-opacity:1;" d="M 16.070312 3.980469 C 15.601562 4.160156 15.230469 4.515625 14.570312 5.417969 C 14.234375 5.882812 13.550781 7.003906 13.25 7.585938 C 12.175781 9.675781 11.140625 12.765625 10.851562 14.753906 C 10.59375 16.5 10.851562 17.40625 11.5625 17.296875 C 12.070312 17.214844 12.507812 16.820312 13.203125 15.796875 C 13.625 15.179688 13.890625 14.707031 13.890625 14.585938 C 13.890625 14.441406 13.738281 14.566406 13.523438 14.890625 C 12.792969 16.003906 12.078125 16.601562 11.535156 16.546875 C 11.355469 16.527344 11.320312 16.507812 11.257812 16.398438 C 11.023438 16.011719 11.085938 15.113281 11.453125 13.621094 C 11.589844 13.058594 12.039062 11.644531 12.265625 11.039062 C 12.839844 9.519531 13.503906 8.121094 14.066406 7.242188 C 14.71875 6.222656 15.640625 5.214844 16.054688 5.074219 C 16.285156 4.992188 16.445312 5.097656 16.539062 5.398438 C 16.59375 5.585938 16.609375 5.738281 16.613281 6.054688 C 16.613281 6.546875 16.535156 7.125 16.269531 8.558594 C 15.820312 10.976562 15.417969 12.707031 14.773438 14.960938 L 14.570312 15.671875 L 14.347656 15.859375 C 14.09375 16.070312 13.410156 16.800781 13.316406 16.957031 C 13.234375 17.09375 13.113281 17.527344 13.0625 17.898438 C 13.011719 18.234375 13.007812 18.328125 13.035156 18.421875 C 13.066406 18.527344 13.117188 18.492188 13.324219 18.222656 C 13.5 17.996094 14.027344 17.367188 14.042969 17.367188 C 14.0625 17.367188 13.394531 19.363281 13.140625 20.046875 C 12.183594 22.644531 11.195312 24.558594 10.441406 25.265625 C 10.238281 25.457031 10.164062 25.613281 10.175781 25.859375 C 10.179688 25.996094 10.183594 26 10.265625 25.988281 C 10.410156 25.980469 10.847656 25.472656 11.242188 24.867188 C 11.960938 23.757812 12.996094 21.527344 13.546875 19.925781 C 13.664062 19.59375 13.960938 18.773438 14.195312 18.152344 C 14.296875 17.878906 14.433594 17.503906 14.492188 17.320312 C 14.597656 16.996094 14.609375 16.980469 14.789062 16.800781 C 15.617188 15.96875 16.324219 15.429688 16.980469 15.117188 L 17.21875 15.007812 L 17.191406 15.117188 C 17.175781 15.179688 17.070312 15.640625 16.953125 16.136719 C 16.3125 18.855469 15.871094 21.210938 15.765625 22.472656 C 15.71875 23.019531 15.726562 23.550781 15.785156 23.84375 C 15.832031 24.070312 15.9375 24.261719 16.046875 24.328125 C 16.179688 24.40625 16.371094 23.824219 16.355469 23.382812 C 16.351562 23.242188 16.34375 23.214844 16.265625 23.128906 C 15.976562 22.816406 16 22.003906 16.34375 20.152344 C 16.609375 18.714844 17.011719 16.890625 17.347656 15.585938 C 17.441406 15.214844 17.523438 14.90625 17.523438 14.902344 C 17.523438 14.890625 17.617188 14.859375 17.726562 14.832031 C 17.945312 14.769531 17.996094 14.730469 18.011719 14.601562 C 18.03125 14.445312 17.972656 14.378906 17.816406 14.378906 L 17.667969 14.378906 L 17.796875 13.914062 C 18.484375 11.472656 19.332031 8.910156 20 7.261719 C 20.117188 6.976562 20.21875 6.703125 20.226562 6.660156 C 20.242188 6.523438 20.234375 6.359375 20.210938 6.25 C 20.191406 6.148438 20.195312 6.140625 20.417969 5.929688 C 21.308594 5.105469 22.335938 4.933594 23.03125 5.5 C 23.738281 6.070312 24.085938 7.472656 23.921875 9.109375 C 23.894531 9.351562 23.804688 9.9375 23.742188 10.253906 C 23.671875 10.601562 23.472656 11.285156 23.308594 11.730469 C 22.855469 12.953125 22.128906 14.148438 21.296875 15.027344 C 21 15.347656 20.871094 15.457031 20.570312 15.675781 C 20.316406 15.859375 20.292969 15.847656 20.277344 15.601562 L 20.265625 15.449219 L 20.058594 15.472656 C 19.707031 15.515625 19.664062 15.535156 19.589844 15.695312 C 19.492188 15.914062 19.414062 16.296875 19.414062 16.597656 L 19.414062 16.835938 L 19.476562 16.851562 C 19.644531 16.894531 20.117188 16.636719 20.570312 16.253906 C 21.34375 15.605469 22.40625 14.328125 22.90625 13.453125 C 23.453125 12.496094 23.746094 11.859375 24.023438 10.992188 C 24.371094 9.894531 24.523438 9.054688 24.542969 8.101562 C 24.554688 7.421875 24.496094 6.933594 24.328125 6.359375 C 24.082031 5.515625 23.648438 4.96875 23.015625 4.703125 C 22.769531 4.597656 21.96875 4.613281 21.648438 4.722656 C 21.164062 4.894531 20.65625 5.21875 20.207031 5.644531 C 20.074219 5.773438 19.953125 5.863281 19.941406 5.851562 C 19.894531 5.792969 19.765625 5.933594 19.695312 6.117188 C 19.65625 6.21875 19.582031 6.359375 19.527344 6.425781 C 19.136719 6.902344 18.53125 7.945312 18.171875 8.753906 C 17.726562 9.757812 17.191406 11.355469 17.03125 12.15625 C 16.9375 12.621094 16.898438 13.164062 16.957031 13.164062 C 16.96875 13.164062 17.105469 12.734375 17.265625 12.210938 C 17.425781 11.691406 17.621094 11.066406 17.703125 10.832031 C 18.09375 9.679688 18.625 8.484375 19.070312 7.714844 L 19.273438 7.371094 L 18.976562 8.378906 C 18.527344 9.894531 18.046875 11.660156 17.507812 13.800781 L 17.355469 14.414062 L 17.03125 14.5 C 16.328125 14.695312 15.597656 15.003906 15.285156 15.234375 C 15.179688 15.3125 15.09375 15.367188 15.09375 15.355469 C 15.09375 15.347656 15.140625 15.175781 15.199219 14.96875 C 15.566406 13.695312 15.984375 11.863281 16.308594 10.101562 C 16.648438 8.269531 16.867188 6.941406 16.929688 6.320312 C 16.96875 5.964844 16.976562 5.816406 16.976562 5.367188 C 16.976562 4.917969 16.972656 4.804688 16.941406 4.632812 C 16.832031 3.96875 16.578125 3.777344 16.070312 3.980469 Z M 16.070312 3.980469 "/>
<path style=" stroke:none;fill-rule:nonzero;fill:rgb(0%,0%,0%);fill-opacity:1;" d="M 21.1875 7.457031 C 21.019531 7.652344 20.894531 7.898438 20.773438 8.257812 C 20.714844 8.441406 20.636719 8.644531 20.601562 8.699219 C 20.484375 8.902344 20.417969 9.160156 20.402344 9.484375 C 20.394531 9.640625 20.359375 9.78125 20.203125 10.320312 C 19.171875 13.792969 19.046875 14.234375 18.652344 15.730469 C 18.285156 17.140625 18.109375 17.882812 17.886719 19.039062 C 17.742188 19.777344 17.492188 21.398438 17.421875 22.039062 C 17.308594 23.117188 17.359375 23.761719 17.582031 23.976562 C 17.679688 24.066406 17.851562 24.070312 17.90625 23.984375 C 17.992188 23.84375 17.953125 23.59375 17.820312 23.472656 C 17.71875 23.371094 17.683594 23.203125 17.675781 22.707031 C 17.664062 22.25 17.695312 21.933594 17.808594 21.195312 C 18.28125 18.125 19.175781 14.773438 20.507812 11.078125 C 20.800781 10.269531 21.078125 9.507812 21.210938 9.164062 C 21.53125 8.335938 21.609375 8.046875 21.609375 7.707031 C 21.609375 7.457031 21.5625 7.367188 21.414062 7.351562 C 21.3125 7.339844 21.269531 7.363281 21.1875 7.457031 Z M 21.1875 7.457031 "/>
</g>
</svg>
