<?xml version="1.0" standalone="no"?>
<!DOCTYPE svg PUBLIC "-//W3C//DTD SVG 1.0//EN" "http://www.w3.org/TR/2001/REC-SVG-20010904/DTD/svg10.dtd">
<svg xmlns="http://www.w3.org/2000/svg" xmlns:xlink="http://www.w3.org/1999/xlink" id="body_1" width="3004" height="927">

<g transform="matrix(1.4667723 0 0 1.4667723 0.050491914 -0)">
	<g transform="matrix(0.1 0 -0 -0.1 0 632)">
	</g>
    <path transform="matrix(0.1 0 -0 -0.1 0 632)"  d="M10284 5534C 9984 5498 9748 5428 9325 5250C 9109 5158 8672 4937 8480 4822C 7792 4409 7129 3799 6944 3406C 6781 3061 6945 2882 7400 2904C 7726 2920 8004 2998 8450 3200C 8719 3322 8890 3415 8890 3439C 8890 3468 8792 3443 8656 3379C 8188 3159 7729 3041 7383 3052C 7268 3056 7246 3060 7204 3081C 7054 3158 7095 3335 7330 3630C 7418 3741 7704 4020 7850 4140C 8218 4440 8642 4716 9003 4890C 9421 5091 10010 5290 10275 5318C 10423 5334 10525 5313 10584 5254C 10620 5217 10631 5187 10632 5124C 10633 5027 10582 4913 10413 4630C 10126 4152 9867 3810 9455 3365L9455 3365L9326 3225L9182 3188C 9021 3146 8583 3002 8522 2971C 8469 2944 8393 2858 8359 2785C 8327 2719 8324 2700 8342 2682C 8363 2661 8396 2668 8527 2721C 8641 2766 8977 2890 8987 2890C 9001 2890 8572 2496 8410 2361C 7797 1848 7164 1470 6682 1330C 6553 1292 6506 1261 6512 1213C 6515 1186 6517 1185 6570 1187C 6663 1189 6943 1289 7195 1409C 7654 1628 8318 2068 8671 2385C 8744 2450 8934 2612 9085 2735C 9151 2789 9237 2863 9275 2899C 9343 2963 9349 2966 9465 3002C 9996 3166 10447 3273 10867 3334L10867 3334L11019 3356L11002 3334C 10993 3322 10924 3231 10849 3133C 10440 2596 10157 2131 10089 1882C 10059 1774 10065 1669 10103 1611C 10133 1566 10200 1528 10271 1515C 10355 1500 10477 1615 10468 1702C 10465 1730 10459 1735 10410 1752C 10226 1814 10239 1974 10459 2340C 10631 2624 10887 2984 11102 3242C 11163 3315 11214 3376 11215 3377C 11216 3379 11274 3385 11345 3391C 11484 3403 11517 3411 11527 3436C 11539 3467 11503 3480 11402 3480L11402 3480L11308 3480L11391 3572C 11829 4054 12373 4560 12801 4886C 12876 4942 12940 4996 12944 5005C 12954 5032 12951 5064 12936 5086C 12922 5106 12926 5107 13068 5149C 13637 5312 14295 5346 14740 5234C 15193 5121 15414 4844 15309 4521C 15293 4473 15235 4357 15195 4295C 15151 4226 15023 4091 14917 4003C 14627 3762 14162 3526 13630 3352C 13439 3289 13357 3267 13166 3224C 13003 3188 12987 3190 12977 3239L12977 3239L12971 3269L12838 3264C 12613 3256 12586 3252 12538 3220C 12475 3177 12426 3101 12426 3042L12426 3042L12425 2995L12465 2992C 12572 2983 12875 3034 13165 3110C 13659 3238 14339 3490 14660 3663C 15011 3852 15197 3978 15374 4149C 15598 4366 15694 4532 15707 4720C 15715 4854 15677 4951 15570 5064C 15413 5231 15136 5339 14730 5391C 14573 5412 14059 5409 13855 5387C 13544 5353 13221 5289 12933 5205C 12847 5180 12770 5162 12763 5164C 12733 5176 12650 5148 12606 5112C 12581 5092 12533 5064 12498 5051C 12248 4957 11859 4751 11630 4591C 11346 4393 11002 4077 10900 3919C 10840 3827 10815 3720 10852 3720C 10859 3720 10948 3805 11050 3908C 11152 4011 11278 4134 11330 4181C 11581 4408 11919 4644 12206 4796L12206 4796L12335 4864L12144 4665C 11857 4366 11551 4017 11206 3594L11206 3594L11107 3473L10901 3456C 10451 3418 9983 3357 9782 3311C 9715 3296 9660 3285 9660 3287C 9660 3289 9691 3323 9728 3364C 9962 3615 10229 3977 10437 4325C 10654 4687 10794 4949 10836 5072C 10860 5142 10865 5171 10865 5260C 10865 5349 10862 5371 10843 5405C 10773 5536 10610 5574 10284 5534z" stroke="none" fill="#000000" fill-rule="nonzero" />
	<g transform="matrix(0.1 0 -0 -0.1 0 632)">
	</g>
    <path transform="matrix(0.1 0 -0 -0.1 0 632)"  d="M13560 4847C 13453 4809 13372 4760 13296 4689C 13257 4653 13207 4613 13185 4602C 13109 4562 13067 4511 13057 4447C 13052 4416 13030 4388 12929 4282C 12271 3596 12190 3509 11938 3213C 11702 2935 11591 2788 11447 2560C 11356 2414 11195 2094 11151 1967C 11077 1754 11110 1627 11252 1585C 11314 1567 11426 1566 11460 1583C 11515 1611 11489 1660 11406 1684C 11339 1704 11318 1737 11312 1835C 11306 1926 11324 1988 11397 2134C 11700 2740 12273 3402 13125 4132C 13312 4292 13491 4442 13575 4510C 13780 4674 13830 4731 13830 4798C 13830 4847 13799 4865 13706 4868C 13641 4870 13612 4866 13560 4847z" stroke="none" fill="#000000" fill-rule="nonzero" />
</g>
</svg>