<svg width="75.52629394531249px" height="68.0249755859375px" xmlns="http://www.w3.org/2000/svg" viewBox="212.23685302734376 40.98751220703125 75.52629394531249 68.0249755859375" style="background: rgba(0, 0, 0, 0);" preserveAspectRatio="xMidYMid"><defs><filter id="editing-extrusion" x="-100%" y="-100%" width="300%" height="300%"><feFlood result="color1" flood-color="#cbcbcb"></feFlood><feConvolveMatrix order="2,2" divisor="1" kernelMatrix="1 0 0 1" in="SourceAlpha" result="extrude"></feConvolveMatrix><feComposite in="color1" in2="extrude" result="comp-extrude" operator="in"></feComposite><feOffset dx="1" dy="1" in="comp-extrude" result="offset-extrude"></feOffset><feMerge><feMergeNode in="offset-extrude"></feMergeNode><feMergeNode in="SourceGraphic"></feMergeNode></feMerge></filter></defs><g filter="url(#editing-extrusion)"><g transform="translate(229.68968802690506, 85.30500030517578)"><path d="M11.70-2.25L11.70-2.25L11.70-2.25Q11.70-4.35 12.54-8.55L12.54-8.55L8.10-8.55L6.45 0L0.18 0L3.99-19.80L10.32-19.80L8.58-10.95L13.02-10.95L14.67-19.80L21-19.80L21-19.80Q20.58-17.58 20.04-15.09L20.04-15.09L19.02-10.20L19.02-10.20Q17.88-4.50 17.88-2.01L17.88-2.01L17.88-2.01Q17.88-0.99 18.21-0.42L18.21-0.42L18.21-0.42Q16.71 0.60 14.96 0.60L14.96 0.60L14.96 0.60Q13.20 0.60 12.45-0.24L12.45-0.24L12.45-0.24Q11.70-1.08 11.70-2.25ZM33.45-20.01L33.45-20.01L33.45-20.01Q40.80-20.01 40.80-14.82L40.80-14.82L40.80-14.82Q40.80-11.97 38.97-10.26L38.97-10.26L38.97-10.26Q37.17-8.55 34.02-8.55L34.02-8.55L34.02-8.55Q32.55-8.55 31.41-9.39L31.41-9.39L31.41-9.39Q30.87-9.75 30.51-10.23L30.51-10.23L30.51-10.23Q32.70-10.23 33.86-11.56L33.86-11.56L33.86-11.56Q35.01-12.90 35.01-15.51L35.01-15.51L35.01-15.51Q35.01-18.12 32.43-18.12L32.43-18.12L31.71-18.12L31.71-18.12Q31.53-18.12 31.38-18.09L31.38-18.09L27.93 0L21.42 0L25.11-19.65L25.11-19.65Q28.32-19.95 30.18-19.98L30.18-19.98L30.18-19.98Q32.04-20.01 33.45-20.01Z" fill="#576ee0"></path></g></g><style>text {
  font-size: 64px;
  font-family: Arial Black;
  dominant-baseline: central;
  text-anchor: middle;
}</style></svg>